<svg id="Layer_1" data-name="Layer 1" xmlns="http://www.w3.org/2000/svg" viewBox="0 0 1053.38 1004.38"><defs><style>.cls-1{fill:#007471;}.cls-2{fill:#c06;}.cls-3{fill:#017676;}.cls-4{fill:#fefefe;}</style></defs><path class="cls-1" d="M418.32,520a29.89,29.89,0,0,1-12.74,12.12q-8.67,4.6-21.87,4.61h-18v41.14H344.26V470.69h39.45q12.44,0,21.18,4.3A30,30,0,0,1,418,486.81a34.69,34.69,0,0,1,.3,33.16ZM396,515.29q4.29-4.06,4.3-11.44,0-15.66-17.5-15.66h-17v31.16h17Q391.69,519.35,396,515.29Z"/><path class="cls-1" d="M439,479.06a12.6,12.6,0,0,1,0-18,14.15,14.15,0,0,1,18.88,0,12.6,12.6,0,0,1,0,18,14.15,14.15,0,0,1-18.88,0Zm20,13.74v85H437.58v-85Z"/><path class="cls-1" d="M551.94,501.16q9.38,9.6,9.37,26.79v49.89H539.82v-47q0-10.14-5.07-15.58t-13.81-5.45q-8.91,0-14.05,5.45t-5.14,15.58v47H480.26v-85h21.49v10.59a29.49,29.49,0,0,1,11-8.67,34,34,0,0,1,14.66-3.15Q542.58,491.57,551.94,501.16Z"/><path class="cls-1" d="M581.57,512.21a38.41,38.41,0,0,1,14.89-15.35,43.09,43.09,0,0,1,21.8-5.44q15.81,0,26.17,7.9t13.89,22.18H635.14a17,17,0,0,0-6.21-8.67,18.06,18.06,0,0,0-10.83-3.15q-9.21,0-14.58,6.68t-5.37,19q0,12.12,5.37,18.8t14.58,6.68q13,0,17-11.67h23.18a39.19,39.19,0,0,1-14,22q-10.44,8.14-26.09,8.14a43.1,43.1,0,0,1-21.8-5.45,38.34,38.34,0,0,1-14.89-15.35q-5.37-9.9-5.37-23.1T581.57,512.21Z"/><path class="cls-1" d="M689.79,573.77a39.21,39.21,0,0,1-15.43-15.43,46.14,46.14,0,0,1-5.6-23,45.35,45.35,0,0,1,5.75-23,40,40,0,0,1,15.74-15.43,48.24,48.24,0,0,1,44.51,0,40,40,0,0,1,15.74,15.43,45.25,45.25,0,0,1,5.75,23,44.29,44.29,0,0,1-5.91,23,40.86,40.86,0,0,1-16,15.43,46.45,46.45,0,0,1-22.49,5.45A44.8,44.8,0,0,1,689.79,573.77Zm33.08-16.12a20.6,20.6,0,0,0,8.21-8.52,28.64,28.64,0,0,0,3.07-13.81q0-12.14-6.37-18.65a21,21,0,0,0-15.58-6.53,20.47,20.47,0,0,0-15.43,6.53q-6.21,6.52-6.21,18.65T696.62,554a20,20,0,0,0,15.27,6.52A22.3,22.3,0,0,0,722.87,557.65Z"/><path class="cls-1" d="M771.68,512.14a37.08,37.08,0,0,1,33.85-20.72,36.21,36.21,0,0,1,15.81,3.6,31.72,31.72,0,0,1,12,9.6V464.25h21.8V577.84h-21.8V565.25a29.15,29.15,0,0,1-11.2,10.13,35.13,35.13,0,0,1-16.74,3.84,36.44,36.44,0,0,1-19.64-5.53,38.4,38.4,0,0,1-14.05-15.58,50,50,0,0,1-5.14-23.1A49.17,49.17,0,0,1,771.68,512.14Zm58.71,9.75a21.65,21.65,0,0,0-8.28-8.6,22.13,22.13,0,0,0-11.21-3,21.55,21.55,0,0,0-19.26,11.43A26.68,26.68,0,0,0,788.49,535a27.54,27.54,0,0,0,3.15,13.43,22.58,22.58,0,0,0,8.28,8.83,21,21,0,0,0,11,3.07,22.23,22.23,0,0,0,11.21-3,21.65,21.65,0,0,0,8.28-8.6,30.91,30.91,0,0,0,0-26.86Z"/><path class="cls-1" d="M954.58,541.76H892.41q.76,9.21,6.45,14.43a19.86,19.86,0,0,0,14,5.22q12,0,17-10.28H953a38.66,38.66,0,0,1-14.12,20.18q-10.44,7.92-25.64,7.91a44.39,44.39,0,0,1-22-5.45,38.27,38.27,0,0,1-15.2-15.43,47.27,47.27,0,0,1-5.45-23q0-13.2,5.37-23.18a37.47,37.47,0,0,1,15-15.35,48.35,48.35,0,0,1,44-.16,36.88,36.88,0,0,1,14.89,14.82,44.82,44.82,0,0,1,5.29,22A50.5,50.5,0,0,1,954.58,541.76Zm-21.65-14.43a17,17,0,0,0-6-13.27,21.2,21.2,0,0,0-14.28-5,19.51,19.51,0,0,0-13.43,4.83q-5.44,4.85-6.68,13.43Z"/><path class="cls-2" d="M448.08,456.36c7.81,0,13.67,5.73,13.7,13.35A14,14,0,0,1,448,483.86c-7.23.06-13.86-6.81-13.82-14.32S440.26,456.35,448.08,456.36Z"/><path class="cls-3" d="M106,559.76c.23-16.67-.66-36.65.44-56.58,1.2-21.8,6.81-42.31,19.86-60.26,5-6.9,11.06-12.58,19.76-14.54a31.72,31.72,0,0,1,6.95-.88c15.89,0,31.78.07,47.68,0,34.84-.16,67.18,21.63,80.73,54.12a85.83,85.83,0,0,1,6.37,42.78c-4.1,37.88-31.61,67-65.5,76.06-7.54,2-15.22,2.65-23,3-3.71.17-4.65.85-4.84,4.61-.26,5.14-.16,10.29-.19,15.44,0,7.79-4.42,12.1-12.26,12.12-20.77.08-41.54-.23-62.31.29-.63,0-1.26,0-1.89,0-9,.11-11.87-4.62-11.86-12.19C106,603.49,106,583.27,106,559.76Zm41-28.84c.33,10.1-.56,19.85,1.65,29.48,3.77,16.41,13,28.36,28.3,35.53a11.09,11.09,0,0,0,4.35,1.29c3.51.1,5.5-2.79,4.37-6.15-.79-2.36-2.81-3.18-4.69-4.13-4.1-2.07-8.23-4.06-11.61-7.28-8.8-8.36-12.4-19-13-30.75-.65-11.9-.34-23.83-.05-35.74A47.39,47.39,0,0,1,157,507c2.76-17.42,18.19-30.58,32.92-31.57,12.35-.82,23.47,1.19,32.6,10,9.57,9.28,12.25,21,11.62,33.84-.16,3.11.91,4.83,3.43,5.16s4.35-1.23,4.88-4c.77-3.93.3-7.86-.05-11.81a46.81,46.81,0,0,0-13.07-29.39c-11.14-11.56-25.19-14.72-40.54-13.2-22.22,2.21-38.54,21-41.24,42.74C146.66,516.33,147.35,523.83,147,530.92ZM165,538c0,7.93-.46,15,2.09,21.75,2.47,6.6,6.27,12.1,12.14,16.07,2.62,1.77,5,1.48,6.34-.72s.64-6.27-1.64-7.7c-6.74-4.24-9.45-10.82-9.68-18.24-.38-12.18-.12-24.38-.15-36.56a16.05,16.05,0,0,1,1.94-7.77c4.26-7.95,10.92-12.37,22.2-11.29,8.58.82,14.41,5.35,17.62,13.08,3.12,7.5,2.53,14.75-2.93,21.2-1.78,2.09-1.92,4.53-.37,6s4.33,1.4,6.19-.6c6.71-7.2,8.28-15.85,6.09-25.07-3.78-16-18.89-27.63-36.69-23.32-13.22,3.2-21.59,14.5-22.64,27.4A194.79,194.79,0,0,0,165,538Zm-35.23-18.68c0,4.33,0,8.67,0,13a4.23,4.23,0,0,0,4.21,4.28,4.07,4.07,0,0,0,4.39-4.1c.09-1.8,0-3.61,0-5.42.2-7.75-.77-15.56.64-23.24,4.36-23.75,24.58-47,55.52-47a63,63,0,0,1,27.12,6.05c2.79,1.31,5.17.66,6.28-1.47,1.2-2.29.38-4.66-2.16-6.42a23.8,23.8,0,0,0-5.7-3c-19.58-6.91-38.78-6.46-57.14,3.77-14.14,7.87-23.73,19.9-29.6,34.88C129.72,499.89,129.16,509.57,129.75,519.36Zm131-7c0-2.71.1-5.42,0-8.12a4.86,4.86,0,0,0-5.35-4.82c-2.64.26-4.38,2.76-4.1,5.65.78,8.11.61,16.14-1.84,24-5.26,17-15.63,29.08-32.8,34.76a52.72,52.72,0,0,1-18.35,2.43c-3.15-.09-5,1.3-5.19,3.57-.25,2.65,1.59,4.37,4.86,4.46a71.94,71.94,0,0,0,14.8-1.08,54.9,54.9,0,0,0,32.37-17.93A60.34,60.34,0,0,0,260.78,512.38ZM129.77,550l-.12,0c.19,1.79.43,3.57.57,5.37A67.65,67.65,0,0,0,144,591.59c1.5,2,3,4.13,5.26,5.37a4.47,4.47,0,0,0,6.78-3.82c0-1.7-.92-3-2-4.27a64.26,64.26,0,0,1-8.72-12.63c-4.59-8.76-6.59-18.16-7-28-.1-2.75-1.54-4.53-3.85-4.69a4.74,4.74,0,0,0-4.74,4.28A17.29,17.29,0,0,0,129.77,550Zm70,7.54a35.71,35.71,0,0,0,7.84-.54c13.16-2,22.85-9,29.4-20.51,1.16-2,.44-3.71-1.35-4.87a3.32,3.32,0,0,0-4.8.7c-.51.63-.93,1.33-1.44,2-4.69,5.86-10.13,10.76-17.51,13-8.19,2.44-16.49,2.19-24.76.4a3.41,3.41,0,0,0-4.31,2.15c-1.09,2.32,0,4.48,3.05,5.52A42.39,42.39,0,0,0,199.74,557.56Zm-4.07-27c4.46,0,4.53,0,4.37-4.37a6,6,0,0,1,2-5.17,8.73,8.73,0,0,0-.46-12.78,8.82,8.82,0,1,0-11.88,13,5.52,5.52,0,0,1,1.9,4.93C191.44,530.59,191.5,530.59,195.67,530.58ZM245.12,486a6,6,0,0,0,5.49,5.42,5.08,5.08,0,0,0,5.34-5.18,5.92,5.92,0,0,0-5.81-6.13C247.2,480.24,245.1,482.7,245.12,486Zm-4.65-9.74a4.61,4.61,0,0,0,4.63-4.84c-.12-3.38-3.21-6.54-6.36-6.49A5,5,0,0,0,234,470.1,6.54,6.54,0,0,0,240.47,476.3Z"/><path class="cls-3" d="M165.67,415.67c.29-4.6.54-8.92-.19-13.23-.94-5.56-6-7.68-10.46-4.24-4.18,3.22-7.07,7.67-10.37,11.71-4.52,5.51-8.93,11.1-13.43,16.61a12.56,12.56,0,0,1-2.54,2.4,6.66,6.66,0,0,1-8,0,6.59,6.59,0,0,1-1-8c2.83-4.8,5.89-9.46,8.86-14.18,4.34-6.9,9-13.62,13-21-7.16.18-13.1,2.92-18.45,7-12.78,9.85-18.92,27.82-10.42,45,1.31,2.65,2.83,5.2,4.34,7.75,1,1.75,1.42,3.38-.5,4.71s-3.27.24-4.43-1.15a42,42,0,0,1-9.76-30.32c1.08-17.86,10.55-29.91,26.86-36.73a39.88,39.88,0,0,1,14.19-2.67,3.62,3.62,0,0,0,3.59-2.06c1.78-3.27,4-6.26,7.44-8a9.22,9.22,0,0,1,4.16-.9c12.37,0,24.74,0,37.11,0,3.58,0,5.15,1.51,5.15,5q0,20,0,40.08c0,.95.51,2.17-1.39,2.16C188.22,415.64,177,415.67,165.67,415.67Z"/><path class="cls-4" d="M147,530.92c.35-7.09-.34-14.59.59-22.06,2.7-21.75,19-40.53,41.24-42.74,15.35-1.52,29.4,1.64,40.54,13.2a46.81,46.81,0,0,1,13.07,29.39c.35,3.95.82,7.88.05,11.81-.53,2.74-2.5,4.27-4.88,4s-3.59-2-3.43-5.16c.63-12.82-2.05-24.56-11.62-33.84-9.13-8.85-20.25-10.86-32.6-10-14.73,1-30.16,14.15-32.92,31.57a47.39,47.39,0,0,0-.76,6.15c-.29,11.91-.6,23.84.05,35.74.64,11.7,4.24,22.39,13,30.75,3.38,3.22,7.51,5.21,11.61,7.28,1.88.95,3.9,1.77,4.69,4.13,1.13,3.36-.86,6.25-4.37,6.15a11.09,11.09,0,0,1-4.35-1.29c-15.29-7.17-24.53-19.12-28.3-35.53C146.44,550.77,147.33,541,147,530.92Z"/><path class="cls-4" d="M165,538a194.79,194.79,0,0,1,.51-25.73c1-12.9,9.42-24.2,22.64-27.4,17.8-4.31,32.91,7.36,36.69,23.32,2.19,9.22.62,17.87-6.09,25.07-1.86,2-4.54,2.2-6.19.6s-1.41-3.95.37-6c5.46-6.45,6.05-13.7,2.93-21.2-3.21-7.73-9-12.26-17.62-13.08-11.28-1.08-17.94,3.34-22.2,11.29a16.05,16.05,0,0,0-1.94,7.77c0,12.18-.23,24.38.15,36.56.23,7.42,2.94,14,9.68,18.24,2.28,1.43,3,5.44,1.64,7.7s-3.72,2.49-6.34.72c-5.87-4-9.67-9.47-12.14-16.07C164.52,553,165,546,165,538Z"/><path class="cls-4" d="M129.75,519.36c-.59-9.79,0-19.47,3.59-28.69,5.87-15,15.46-27,29.6-34.88,18.36-10.23,37.56-10.68,57.14-3.77a23.8,23.8,0,0,1,5.7,3c2.54,1.76,3.36,4.13,2.16,6.42-1.11,2.13-3.49,2.78-6.28,1.47a63,63,0,0,0-27.12-6.05c-30.94,0-51.16,23.25-55.52,47-1.41,7.68-.44,15.49-.64,23.24,0,1.81.07,3.62,0,5.42a4.07,4.07,0,0,1-4.39,4.1,4.23,4.23,0,0,1-4.21-4.28C129.73,528,129.75,523.69,129.75,519.36Z"/><path class="cls-4" d="M260.78,512.38a60.34,60.34,0,0,1-15.62,43,54.9,54.9,0,0,1-32.37,17.93,71.94,71.94,0,0,1-14.8,1.08c-3.27-.09-5.11-1.81-4.86-4.46.23-2.27,2-3.66,5.19-3.57a52.72,52.72,0,0,0,18.35-2.43c17.17-5.68,27.54-17.79,32.8-34.76,2.45-7.9,2.62-15.93,1.84-24-.28-2.89,1.46-5.39,4.1-5.65a4.86,4.86,0,0,1,5.35,4.82C260.88,507,260.78,509.67,260.78,512.38Z"/><path class="cls-4" d="M129.77,550a17.29,17.29,0,0,1,0-2.16,4.74,4.74,0,0,1,4.74-4.28c2.31.16,3.75,1.94,3.85,4.69.38,9.81,2.38,19.21,7,28a64.26,64.26,0,0,0,8.72,12.63c1.1,1.25,2.07,2.57,2,4.27A4.47,4.47,0,0,1,149.3,597c-2.29-1.24-3.76-3.37-5.26-5.37a67.65,67.65,0,0,1-13.82-36.18c-.14-1.8-.38-3.58-.57-5.37Z"/><path class="cls-4" d="M199.74,557.56a42.39,42.39,0,0,1-13.88-2.24c-3-1-4.14-3.2-3.05-5.52a3.41,3.41,0,0,1,4.31-2.15c8.27,1.79,16.57,2,24.76-.4,7.38-2.19,12.82-7.09,17.51-13,.51-.63.93-1.33,1.44-2a3.32,3.32,0,0,1,4.8-.7c1.79,1.16,2.51,2.84,1.35,4.87C230.43,548,220.74,555,207.58,557A35.71,35.71,0,0,1,199.74,557.56Z"/><path class="cls-2" d="M195.67,531.32c-4.42,0-4.48,0-4.37-4.61.06-2.08-.23-3.68-2-5.23a9.35,9.35,0,1,1,12.6-13.82c4,3.68,4.38,9.77.48,13.55a6.38,6.38,0,0,0-2.06,5.48C200.47,531.31,200.4,531.32,195.67,531.32Z"/><path class="cls-4" d="M245.12,486c0-3.34,2.08-5.8,5-5.89a5.92,5.92,0,0,1,5.81,6.13,5.08,5.08,0,0,1-5.34,5.18A6,6,0,0,1,245.12,486Z"/><path class="cls-4" d="M240.47,476.3a6.54,6.54,0,0,1-6.51-6.2,5,5,0,0,1,4.78-5.13c3.15-.05,6.24,3.11,6.36,6.49A4.61,4.61,0,0,1,240.47,476.3Z"/></svg>